<svg width="31" height="30" fill="none" xmlns="http://www.w3.org/2000/svg"><path d="M29.23 16.553a.604.604 0 00-.708.479c-1.201 6.235-6.69 10.76-13.05 10.76-6.225 0-11.615-4.336-12.967-10.368l.158.157a.602.602 0 00.855 0 .604.604 0 000-.854l-1.243-1.243a.604.604 0 00-.855 0L.177 16.727a.604.604 0 00.855.854l.224-.223C2.604 24.11 8.568 29 15.473 29c6.938 0 12.925-4.937 14.236-11.74a.604.604 0 00-.48-.708zm1.538-5.133a.604.604 0 00-.854 0l-.224.223C28.341 4.891 22.378 0 15.473 0 8.535 0 2.548 4.938 1.237 11.74a.604.604 0 101.187.23C3.625 5.733 9.114 1.208 15.473 1.208c6.226 0 11.616 4.337 12.967 10.369l-.157-.158a.605.605 0 00-.855.854l1.243 1.244a.604.604 0 00.855 0l1.242-1.244a.604.604 0 000-.854z" fill="#FF9957"/><path d="M15.473 24.717c5.633 0 10.216-4.583 10.216-10.217S21.106 4.283 15.473 4.283C9.839 4.283 5.256 8.866 5.256 14.5s4.583 10.217 10.217 10.217zm0-19.225c4.967 0 9.008 4.04 9.008 9.008 0 4.967-4.041 9.008-9.008 9.008-4.967 0-9.008-4.041-9.008-9.008 0-4.967 4.04-9.008 9.008-9.008z" fill="#FF9957"/><path d="M16.11 17.165a.603.603 0 00.785-.339l1.673-4.205a.604.604 0 00-1.123-.447l-1.673 4.206a.605.605 0 00.338.785zm3.416-4.163h1.388l-1.476 3.357a.604.604 0 101.106.487l1.85-4.205a.604.604 0 00-.554-.848h-2.314a.604.604 0 000 1.209zm-7.736 2.666a.604.604 0 00.52.297h1.495l-.006.631a.604.604 0 00.6.61h.005a.604.604 0 00.604-.6l.006-.645a.605.605 0 00.008-1.201c.005-.984.007-1.974-.005-2.123-.033-.388-.27-.707-.605-.81-.335-.104-.687.021-.942.334-.239.293-1.26 2.13-1.69 2.907a.605.605 0 00.01.6zm2.026-1.756c0 .26-.002.548-.004.844h-.474c.168-.3.331-.588.478-.844z" fill="#FF9957"/><path d="M11.424 17.239a.604.604 0 00-.008-1.209h-.007l-.993.009c.217-.295.497-.68.85-1.184.277-.398.46-.776.54-1.123a1.25 1.25 0 00.036-.3 1.681 1.681 0 00-3.33-.325.604.604 0 001.187.233.472.472 0 01.934.062l-.011.083c-.036.137-.126.36-.347.677-.665.95-1.061 1.468-1.274 1.747-.273.358-.424.555-.323.882a.63.63 0 00.404.41c.08.027.145.049.97.049.325 0 .766-.004 1.372-.011z" fill="#FF9957"/></svg>