<svg width="29" height="29" fill="none" xmlns="http://www.w3.org/2000/svg"><g clip-path="url(#clip0)" fill="#FF915D"><path d="M28.538 22.395l-11.085-19.2A3.375 3.375 0 0014.5 1.492a3.375 3.375 0 00-2.953 1.705L.463 22.395a3.375 3.375 0 000 3.41 3.375 3.375 0 002.953 1.705h22.169a3.376 3.376 0 002.953-1.705 3.375 3.375 0 000-3.41zm-1.471 2.56c-.31.536-.864.856-1.482.856H3.415c-.618 0-1.172-.32-1.481-.856a1.693 1.693 0 010-1.71l11.084-19.2c.31-.535.864-.855 1.482-.855.619 0 1.173.32 1.482.855l11.085 19.2a1.693 1.693 0 010 1.71z"/><path d="M15.35 9.97h-1.7v8.494h1.7V9.97zm-.85 10.193a1.134 1.134 0 000 2.265c.624 0 1.133-.508 1.133-1.132 0-.625-.508-1.133-1.133-1.133z"/></g><defs><clipPath id="clip0"><path fill="#fff" d="M0 0h29v29H0z"/></clipPath></defs></svg>