<svg width="33" height="25" fill="none" xmlns="http://www.w3.org/2000/svg"><path d="M31.525 18.175l-1.997-.57a.203.203 0 01-.146-.195v-.666c.162-.113.317-.239.462-.38a3.556 3.556 0 001.089-2.572v-.92l.193-.386a3.09 3.09 0 00.323-1.371V8.623a.483.483 0 00-.483-.483h-4.652a3.071 3.071 0 00-3.067 3.068v.029c0 .393.093.788.269 1.14l.247.495v.79c0 1.251.617 2.374 1.551 3.05v.698c0 .108 0 .152-.399.266l-.974.279-2.818-1.025a.483.483 0 00-.132-.37l-.9-.946v-1.588a5.673 5.673 0 002.067-4.369V8.39a5.587 5.587 0 00.517-2.35V.871a.483.483 0 00-.483-.484h-7.236a4.624 4.624 0 00-4.619 4.618V6.04c0 .814.174 1.604.517 2.35v1.09c0 1.807.804 3.435 2.068 4.508v1.626l-.9.946a.483.483 0 00-.133.37l-2.974 1.082a2.535 2.535 0 00-.597.313l-.467-.234c1.39-.605 1.83-1.456 1.851-1.498a.483.483 0 000-.433c-.348-.697-.39-1.974-.424-3a26.146 26.146 0 00-.043-.953C9.07 9.89 7.308 8.14 5.135 8.14c-2.173 0-3.935 1.749-4.1 4.067-.02.288-.031.61-.042.952-.034 1.027-.077 2.304-.425 3.001a.483.483 0 000 .433c.021.042.46.891 1.854 1.497l-1.298.649A2.023 2.023 0 000 20.559v3.57a.483.483 0 10.967 0v-3.57c0-.408.226-.774.59-.956l1.615-.807.562.534a2.028 2.028 0 002.802 0l.562-.534.527.263a2.545 2.545 0 00-.389 1.35v3.72a.483.483 0 00.967 0v-3.72c0-.664.419-1.262 1.043-1.489l3.135-1.14 1.306 1.958a.997.997 0 00.833.446.997.997 0 00.706-.293l.797-.797v5.035a.483.483 0 10.966 0v-5.035l.797.797a.996.996 0 00.806.288c.3-.03.567-.19.733-.44l1.306-1.959 3.136 1.14a1.589 1.589 0 011.042 1.49v3.72a.483.483 0 10.967 0v-3.72c0-.673-.267-1.303-.715-1.77l.12-.034c.12-.034.284-.081.45-.162l1.234 1.234v4.452a.483.483 0 10.966 0v-4.452l1.226-1.226c.065.034.134.062.206.082l1.996.57c.456.13.774.553.774 1.027v3.999a.483.483 0 10.967 0v-4c0-.903-.607-1.707-1.475-1.955zM3.1 17.32c-.904-.326-1.358-.76-1.551-.996a5.33 5.33 0 00.275-1.158A3.6 3.6 0 003.1 16.74v.58zm2.77 1.308a1.067 1.067 0 01-1.471 0l-.45-.427a1 1 0 00.118-.472v-.515a3.575 3.575 0 002.134 0v.515a1 1 0 00.118.472l-.45.427zm-.736-2.219a2.62 2.62 0 01-2.617-2.618.483.483 0 00-.563-.476l.004-.125c.01-.332.021-.646.04-.915.062-.869.41-1.669.978-2.254a2.988 2.988 0 012.158-.915c.819 0 1.585.325 2.159.915.568.585.915 1.385.977 2.254.02.27.03.583.04.915l.004.087c-.526-.81-1.339-1.408-2.388-1.745a6.066 6.066 0 00-1.839-.291.483.483 0 00-.334.147l-.873.905a.483.483 0 10.696.67l.726-.752c.625.03 2.636.265 3.418 1.987a2.611 2.611 0 01-2.586 2.211zm2.034.913v-.577a3.575 3.575 0 001.276-1.576c.058.416.144.81.276 1.155-.193.235-.649.672-1.552.998zm4.652-7.843v-1.2a.483.483 0 00-.048-.21 4.638 4.638 0 01-.469-2.03V5.005a3.656 3.656 0 013.652-3.652h6.752V6.04c0 .704-.157 1.388-.469 2.032a.484.484 0 00-.048.21v1.376a4.64 4.64 0 01-1.482 3.42 5.205 5.205 0 01-.37.314l-.009.006a4.648 4.648 0 01-3.137.935c-2.452-.158-4.372-2.29-4.372-4.852zm2.722 9.727c-.004.003-.011.011-.027.01a.03.03 0 01-.025-.015l-1.503-2.255.484-.509 2.28 1.56-1.21 1.209zm1.963-1.866l-2.618-1.789v-.902a5.442 5.442 0 002.623.66 5.6 5.6 0 002.613-.64v.882l-2.618 1.79zm2.015 1.86a.03.03 0 01-.024.016c-.016.002-.024-.007-.027-.01l-1.21-1.21 2.28-1.559.485.509-1.504 2.255zm8.827-.407l-1.097-1.097c.02-.087.03-.182.03-.287v-.204a3.392 3.392 0 001.068.17 3.59 3.59 0 001.066-.16v.194c0 .097.012.191.035.282l-1.102 1.102zm1.823-3.123a2.6 2.6 0 01-1.904.738c-1.399-.042-2.537-1.274-2.537-2.747v-.904a.484.484 0 00-.05-.216l-.3-.597a1.593 1.593 0 01-.167-.708v-.03c0-1.158.943-2.1 2.101-2.1h4.169v2.008c0 .324-.077.649-.222.94l-.244.487a.483.483 0 00-.051.216v1.034a2.6 2.6 0 01-.795 1.879z" fill="#fff"/></svg>