<svg width="27" height="27" fill="none" xmlns="http://www.w3.org/2000/svg"><g clip-path="url(#clip0)" fill="#fff"><path d="M26.868 22.237c-.21-.733-.666-1.243-1.252-1.4l-1.101-.295c.072-.143.133-.298.181-.465.186-.65.174-1.431-.032-2.203-.46-1.713-1.714-2.816-2.857-2.51l-.318.085c.734-2.663.325-5.06-.187-6.669-.616-1.938-1.494-3.158-1.532-3.21a.527.527 0 00-.945.217 4.139 4.139 0 01-1.108 2.163c.372-3.133-.645-5.055-1.637-6.15C14.846.437 13.399.035 13.338.02a.528.528 0 00-.6.762c1.18 2.147.658 2.854-.206 4.026-.356.483-.755 1.025-1.066 1.728-.417-.909-1.093-1.658-2.058-2.306a.527.527 0 00-.806.565c.52 2.103-.513 3.322-1.607 4.612-1.254 1.479-2.657 3.134-1.386 6.07l-.418-.113c-1.143-.306-2.397.797-2.857 2.51-.267 1-.198 1.976.15 2.668l-1.102.295c-.586.157-1.042.668-1.252 1.4-.185.65-.174 1.431.033 2.203.207.77.588 1.454 1.073 1.923.43.416.923.637 1.398.637.13 0 .26-.016.385-.05l10.48-2.808 10.48 2.808c.128.034.258.05.387.05 1.027 0 2.062-1.039 2.47-2.56.206-.772.217-1.554.032-2.203zm-4.788-5.854c.482-.129 1.253.599 1.565 1.765.025.091.045.183.063.275l-.974.261a.527.527 0 10.273 1.019l.735-.197a2.234 2.234 0 01-.06.28c-.105.369-.29.613-.51.672L4.277 25.521c.173-.622.173-1.383-.04-2.173-.203-.76-.576-1.434-1.05-1.902l18.893-5.063zM7.8 10.089c.94-1.11 1.984-2.341 1.998-4.168.795.848 1.135 1.877 1.135 3.308a.527.527 0 101.055 0c0-1.905.708-2.866 1.393-3.795.751-1.019 1.469-1.992.881-3.81.343.225.719.526 1.07.92 1.368 1.54 1.746 3.733 1.124 6.518a.527.527 0 00.746.589c.074-.036 1.532-.765 2.295-2.48.259.498.56 1.168.811 1.964.719 2.281.71 4.513-.021 6.637l-3.246.87a9.33 9.33 0 00.071-.572.527.527 0 10-1.05-.097 8.57 8.57 0 01-.149.97l-2.414.647-3.06-.82c-.25-1.097-.124-1.987.418-2.818.179.478.48 1.012.98 1.384a.527.527 0 00.624.004c.098-.07 2.053-1.518 2.413-3.99.082.117.163.24.243.373a.527.527 0 10.902-.547 7.769 7.769 0 00-1.29-1.604.527.527 0 00-.886.447c.136 1.135-.153 2.225-.857 3.24a6.01 6.01 0 01-.811.941c-.452-.582-.525-1.427-.526-1.435a.527.527 0 00-.898-.334c-1.186 1.185-1.652 2.484-1.437 4.038L6.97 15.84c-1.626-2.856-.54-4.137.83-5.752zm-4.462 8.12l1.005.268a.526.526 0 00.646-.372.527.527 0 00-.373-.646l-.875-.235c.363-.603.84-.931 1.177-.841l6.544 1.753-7.919 2.122c-.291-.36-.433-1.142-.205-2.05zm-2.156 5.958c-.156-.581-.17-1.179-.038-1.64.106-.368.291-.612.51-.67a.446.446 0 01.116-.015c.198 0 .433.119.662.34.345.334.632.858.787 1.439.313 1.166.008 2.181-.473 2.31-.218.059-.502-.06-.777-.326-.345-.333-.632-.858-.787-1.438zm16.501-1.146l.025.008 1.626.435a.526.526 0 00.645-.373.527.527 0 00-.28-.61l3.746-1.004c.072-.02.141-.044.209-.074l.158.043c-.475.468-.848 1.142-1.052 1.902-.212.79-.211 1.551-.039 2.173l-7.184-1.925 2.146-.575zm8.133 1.146c-.312 1.166-1.084 1.893-1.564 1.764-.481-.129-.786-1.144-.473-2.31.155-.581.442-1.105.787-1.439.23-.221.464-.34.662-.34.04 0 .079.004.116.014.219.059.405.303.51.671.132.461.118 1.059-.038 1.64z"/><path d="M15.924 13.651a.528.528 0 10.527-.527.527.527 0 00-.527.527zM6.603 23.15a.526.526 0 00.137-.018l1.162-.311a.527.527 0 10-.273-1.019l-1.162.311a.527.527 0 00.136 1.037zm8.015-2.376a.526.526 0 00.137-.018l1.161-.31a.527.527 0 10-.273-1.02l-1.161.312a.527.527 0 00.136 1.036z"/></g><defs><clipPath id="clip0"><path fill="#fff" d="M0 0h27v27H0z"/></clipPath></defs></svg>