<svg width="19" height="19" fill="none" xmlns="http://www.w3.org/2000/svg"><path fill-rule="evenodd" clip-rule="evenodd" d="M13.545 3.971c1.647.383 2.277 1.346 3.067 2.672h-3.067V3.97zM3.918 6.754c.322 0 .557.156.557.52a.557.557 0 01-.555.556H.557a.557.557 0 000 1.113h5.01a.557.557 0 11.002 1.114H.557a.557.557 0 100 1.113H1.78v1.67c0 .307.25.556.557.556h1.119a2.135 2.135 0 004.182 0h5.652a2.135 2.135 0 004.182 0h.97a.556.556 0 00.557-.556V9.5c0-1.633-1.723-1.742-1.724-1.744h-4.288a.557.557 0 01-.556-.557V3.86H2.338a.557.557 0 00-.557.557v1.225h-.668a.557.557 0 100 1.113h2.805zm12.185 5.494a1.02 1.02 0 11-1.443 1.444 1.02 1.02 0 011.443-1.444zm-9.834 0a1.02 1.02 0 11-1.443 1.444 1.02 1.02 0 011.443-1.444z" fill="#FF9957"/></svg>