<svg width="20" height="20" fill="none" xmlns="http://www.w3.org/2000/svg"><path d="M4.713 16.88a2.03 2.03 0 114.059 0H4.713zm0 0c0 1.12.909 2.03 2.03 2.03m-2.03-2.03l2.03 2.03m0 0a2.03 2.03 0 002.029-2.03l-2.03 2.03zm.893-2.03v0a.894.894 0 11-1.787 0 .894.894 0 011.787 0zm7.934 0v0a.894.894 0 11-1.788 0 .894.894 0 011.788 0zm-.894-2.03a2.03 2.03 0 100 4.059 2.03 2.03 0 000-4.058zm4.353-10.909h0l-.003-.004a.672.672 0 00-.43-.215h0-.013L5.097 3.535 4.755 2.49h0l-.001-.003a2.071 2.071 0 00-1.936-1.395h0-1.401a.568.568 0 100 1.135h1.398c.39.01.734.26.862.629 0 0 0 0 0 0l2.633 7.942-.186.427h0l-.002.006a2.154 2.154 0 00.202 1.952h0a2.092 2.092 0 001.687.945h8.127a.568.568 0 100-1.135h-8.12a.915.915 0 01-.752-.43h0a.998.998 0 01-.093-.867l.13-.292 8.704-.91h.001a2.447 2.447 0 002.113-1.868s0 0 0 0l1-4.188a.505.505 0 00-.092-.496zm-2.014 4.426h0v.003a1.27 1.27 0 01-1.14.99h0-.003l-8.566.886-1.838-5.574 12.4.182-.853 3.513z" fill="#fff" stroke="#fff" stroke-width=".3"/></svg>