<svg width="23" height="23" fill="none" xmlns="http://www.w3.org/2000/svg"><path d="M7.337 17.89a2.401 2.401 0 100 4.802 2.401 2.401 0 000-4.802zm0 3.735a1.334 1.334 0 110-2.668 1.334 1.334 0 010 2.668zm10.138-3.735a2.401 2.401 0 100 4.802 2.401 2.401 0 000-4.802zm0 3.735a1.334 1.334 0 110-2.668 1.334 1.334 0 010 2.668zm5.416-17.742a.667.667 0 00-.427-.214L5.096 3.43l-.48-1.467A2.455 2.455 0 002.32.308H.534a.534.534 0 100 1.067H2.32c.58.013 1.091.385 1.28.934l3.39 10.218-.268.614a2.561 2.561 0 00.24 2.32 2.481 2.481 0 002.001 1.121h10.379a.534.534 0 100-1.067H8.964a1.36 1.36 0 01-1.12-.64 1.467 1.467 0 01-.134-1.28l.214-.481 11.232-1.174a2.935 2.935 0 002.535-2.241l1.28-5.363a.454.454 0 00-.08-.453zm-2.24 5.576a1.814 1.814 0 01-1.628 1.414l-11.1 1.147-2.48-7.524 16.354.24L20.65 9.46z" fill="#fff"/></svg>