<svg width="35" height="35" fill="none" xmlns="http://www.w3.org/2000/svg"><path d="M33.999 4.785a1.319 1.319 0 00-1.865-.002L16.309 20.566l-5.71-6.201a1.32 1.32 0 00-1.94 1.786l6.64 7.211a1.317 1.317 0 001.9.041L33.997 6.65c.517-.514.517-1.35.003-1.865z" fill="#fff"/><path d="M33.68 16.18c-.728 0-1.318.591-1.318 1.32 0 8.195-6.667 14.862-14.862 14.862S2.638 25.695 2.638 17.5 9.305 2.638 17.5 2.638A1.319 1.319 0 1017.5 0C7.85 0 0 7.85 0 17.5S7.85 35 17.5 35 35 27.15 35 17.5c0-.729-.59-1.32-1.32-1.32z" fill="#fff"/></svg>