<svg width="19" height="19" fill="none" xmlns="http://www.w3.org/2000/svg"><g clip-path="url(#clip0)" fill="#fff"><path d="M17.736 9.746a.556.556 0 010-.492l.71-1.45a1.65 1.65 0 00-.713-2.19l-1.425-.756a.557.557 0 01-.29-.398l-.278-1.59a1.65 1.65 0 00-1.863-1.353l-1.598.226a.557.557 0 01-.468-.153L10.651.47a1.65 1.65 0 00-2.303 0l-1.16 1.12a.557.557 0 01-.467.152l-1.598-.226A1.65 1.65 0 003.26 2.87l-.28 1.59a.557.557 0 01-.29.398l-1.425.756a1.65 1.65 0 00-.711 2.19l.708 1.45a.557.557 0 010 .492l-.708 1.45a1.65 1.65 0 00.711 2.19l1.426.756a.56.56 0 01.289.399l.279 1.589a1.648 1.648 0 001.863 1.354l1.598-.226a.557.557 0 01.468.152l1.16 1.122a1.65 1.65 0 002.302 0l1.16-1.122a.557.557 0 01.468-.152l1.598.226a1.65 1.65 0 001.863-1.354l.279-1.59a.557.557 0 01.29-.398l1.424-.756a1.65 1.65 0 00.712-2.19l-.709-1.45zm-.516 2.672l-1.425.756c-.455.242-.767.67-.855 1.177l-.28 1.59a.557.557 0 01-.63.457l-1.597-.226a1.645 1.645 0 00-1.384.45l-1.16 1.122a.558.558 0 01-.779 0l-1.16-1.122a1.644 1.644 0 00-1.383-.45l-1.598.226a.558.558 0 01-.63-.457l-.279-1.59a1.646 1.646 0 00-.855-1.177l-1.425-.756a.558.558 0 01-.24-.741l.708-1.45a1.646 1.646 0 000-1.454l-.709-1.45a.558.558 0 01.24-.741l1.426-.756c.455-.241.766-.67.855-1.177l.279-1.59c.053-.299.33-.5.63-.457l1.598.226a1.646 1.646 0 001.383-.45l1.16-1.122a.558.558 0 01.78 0l1.16 1.122c.369.358.873.522 1.383.45l1.597-.226a.557.557 0 01.63.458l.28 1.589c.088.507.4.936.854 1.177l1.426.756a.558.558 0 01.24.741l-.708 1.45a1.646 1.646 0 000 1.454l.709 1.45a.558.558 0 01-.241.741z"/><path d="M13.504 5.496a.548.548 0 00-.775 0L5.496 12.73a.548.548 0 00.775.775l7.232-7.233a.548.548 0 000-.775zM7.308 4.57c-1.107 0-2.009.9-2.009 2.008s.902 2.01 2.01 2.01a2.012 2.012 0 002.008-2.01A2.011 2.011 0 007.308 4.57zm0 2.922a.914.914 0 010-1.827.914.914 0 010 1.827zm4.384 2.921c-1.108 0-2.01.901-2.01 2.01 0 1.107.902 2.008 2.01 2.008a2.011 2.011 0 002.009-2.009 2.011 2.011 0 00-2.01-2.009zm0 2.922a.914.914 0 010-1.826.914.914 0 010 1.826z"/></g><defs><clipPath id="clip0"><path fill="#fff" d="M0 0h19v19H0z"/></clipPath></defs></svg>