<svg width="28" height="28" fill="none" xmlns="http://www.w3.org/2000/svg"><g clip-path="url(#clip0)" fill="#fff"><path d="M26.138 14.363a.82.82 0 010-.726l1.044-2.136a2.43 2.43 0 00-1.048-3.228l-2.1-1.114a.82.82 0 01-.427-.587l-.411-2.342a2.43 2.43 0 00-2.746-1.995l-2.354.333a.82.82 0 01-.69-.224L15.696.69a2.43 2.43 0 00-3.393 0l-1.71 1.654a.82.82 0 01-.689.224L7.55 2.235A2.43 2.43 0 004.804 4.23l-.41 2.342a.82.82 0 01-.427.587l-2.1 1.114a2.43 2.43 0 00-1.05 3.228l1.045 2.136a.82.82 0 010 .726L.817 16.499a2.43 2.43 0 001.05 3.228l2.1 1.114a.82.82 0 01.426.587l.411 2.342a2.43 2.43 0 002.746 1.995l2.354-.333a.82.82 0 01.69.224l1.709 1.654a2.432 2.432 0 003.394 0l1.709-1.654a.822.822 0 01.69-.224l2.354.333a2.43 2.43 0 002.746-1.995l.41-2.342a.82.82 0 01.427-.587l2.1-1.114a2.43 2.43 0 001.05-3.228l-1.045-2.136zm-.761 3.937l-2.1 1.115a2.425 2.425 0 00-1.26 1.734l-.412 2.342a.822.822 0 01-.929.675l-2.354-.333a2.425 2.425 0 00-2.039.663l-1.709 1.653a.822.822 0 01-1.148 0l-1.71-1.654a2.422 2.422 0 00-2.038-.662l-2.355.333a.823.823 0 01-.928-.675l-.411-2.342a2.425 2.425 0 00-1.26-1.734l-2.1-1.115a.822.822 0 01-.356-1.092l1.045-2.136a2.425 2.425 0 000-2.144l-1.045-2.136A.822.822 0 012.623 9.7l2.1-1.115a2.425 2.425 0 001.26-1.734l.411-2.342a.822.822 0 01.93-.675l2.354.333a2.425 2.425 0 002.039-.663l1.709-1.653a.823.823 0 011.148 0l1.709 1.653a2.425 2.425 0 002.039.663l2.354-.333a.822.822 0 01.93.675l.41 2.342c.131.747.59 1.379 1.26 1.734l2.1 1.115c.396.21.552.69.355 1.092l-1.044 2.136a2.425 2.425 0 000 2.144l1.044 2.136a.822.822 0 01-.354 1.092z"/><path d="M19.9 8.1a.807.807 0 00-1.142 0L8.1 18.758A.807.807 0 009.242 19.9L19.9 9.242a.807.807 0 000-1.142zm-9.13-1.367a2.964 2.964 0 00-2.96 2.96 2.964 2.964 0 002.96 2.961 2.964 2.964 0 002.961-2.96 2.964 2.964 0 00-2.96-2.961zm0 4.306a1.347 1.347 0 01-1.345-1.345 1.346 1.346 0 111.345 1.345zm6.46 4.307a2.964 2.964 0 00-2.961 2.96 2.964 2.964 0 002.96 2.961 2.964 2.964 0 002.962-2.96 2.964 2.964 0 00-2.961-2.961zm0 4.306a1.347 1.347 0 01-1.346-1.346 1.347 1.347 0 012.692.001c0 .742-.604 1.345-1.346 1.345z"/></g><defs><clipPath id="clip0"><path fill="#fff" d="M0 0h28v28H0z"/></clipPath></defs></svg>