<svg width="20" height="21" fill="none" xmlns="http://www.w3.org/2000/svg"><path d="M8.49 7.932c.896-.896 1.344-1.988 1.344-3.304 0-1.316-.448-2.408-1.344-3.276C7.594.456 6.474.008 5.13.008c-1.344 0-2.464.448-3.388 1.344C.846 2.248.398 3.34.398 4.628c0 1.288.448 2.38 1.344 3.276.924.896 2.044 1.344 3.388 1.344 1.344 0 2.464-.448 3.36-1.316zm-4.424 10.08L16.862 3.788l-1.708-.952L2.386 17.032l1.68.98zM3.842 5.916c-.644-.7-.644-1.876 0-2.548.672-.672 1.848-.672 2.52 0 .672.672.672 1.848 0 2.548-.672.672-1.848.672-2.52 0zm14.112 13.076c.896-.896 1.344-1.988 1.344-3.276 0-1.288-.448-2.38-1.344-3.276-.896-.896-2.016-1.344-3.36-1.344-1.344 0-2.464.448-3.36 1.344-.896.896-1.344 1.988-1.344 3.276 0 1.288.448 2.38 1.344 3.276.896.896 2.016 1.344 3.36 1.344 1.344 0 2.464-.448 3.36-1.344zm-1.624-3.276c0 .98-.728 1.792-1.736 1.792s-1.736-.784-1.736-1.792.728-1.792 1.736-1.792 1.736.784 1.736 1.792z" fill="#fff"/></svg>