<svg width="29" height="29" fill="none" xmlns="http://www.w3.org/2000/svg"><g clip-path="url(#clip0)" fill="#fff"><path d="M17.845 20.486h-1.59a.425.425 0 000 .85h1.59a.425.425 0 100-.85z"/><path d="M27.202 15.938l-2.314-.892-1.179-1.18a.423.423 0 00-.273-.123v-.938a4.38 4.38 0 001.111-2.189c.1.005.2-.003.298-.024.566-.115.976-.64.976-1.247v-.31c0-.35-.143-.673-.374-.903.375-2.04.066-3.703-.898-4.816-.932-1.076-2.434-1.59-4.343-1.487-1.763.095-2.902.907-3.262 1.204a2.238 2.238 0 00-.875.297c-.471.283-1.034.877-1.034 2.103 0 1.069.171 1.961.295 2.467a1.26 1.26 0 00-.692 1.14v.305c0 .607.41 1.131.975 1.247.099.02.2.028.298.024a4.38 4.38 0 001.111 2.189v.938a.423.423 0 00-.273.123l-1.18 1.18-2.312.892c-.2.077-.392.177-.569.297a.425.425 0 00.478.703c.123-.084.257-.153.396-.207l2.147-.828 1.642 2.462a1.216 1.216 0 001.614.385l-.352 7.99a.425.425 0 10.848.037l.327-7.416h.882l.327 7.416a.425.425 0 10.849-.037l-.352-7.99a1.213 1.213 0 00.719.152c.365-.036.691-.232.895-.537l1.641-2.462 2.147.828c.301.116.56.301.764.532l-1.469 1.469a2.791 2.791 0 00-.823 1.986v6.04a.425.425 0 00.85 0v-6.04c0-.523.204-1.015.574-1.385l1.29-1.29c.05.19.075.39.067.594l-.33 8.104a.425.425 0 00.85.035l.329-8.104a2.808 2.808 0 00-1.796-2.734zm-10.46-5.497a.827.827 0 00-.86-.674.365.365 0 01-.098-.007c-.17-.035-.297-.213-.297-.415V9.04c0-.197.132-.374.3-.404a.37.37 0 01.364.14.595.595 0 00.814.127c.265-.187.5-.416.696-.68a.425.425 0 10-.681-.508 2.26 2.26 0 01-.331.358 1.216 1.216 0 00-.46-.246 9.773 9.773 0 01-.304-2.394c0-.651.2-1.108.596-1.36.308-.195.635-.203.635-.203a.429.429 0 00.293-.117c.01-.01 1.055-.98 2.843-1.076 1.637-.088 2.9.325 3.655 1.196.76.877 1.012 2.224.738 3.91a1.841 1.841 0 00-.362.025l-.4-.958a.425.425 0 00-.5-.248c-.039.01-3.962 1.005-5.607-1.043a.425.425 0 10-.662.532c1.68 2.091 5.013 1.636 6.122 1.414l.309.741a.698.698 0 00.807.414.917.917 0 01.318-.023c.171.034.301.205.301.399v.31c0 .201-.127.38-.296.414a.36.36 0 01-.1.007.827.827 0 00-.86.674 3.544 3.544 0 01-6.972 0zm1.885 7.509a.365.365 0 01-.298.107.365.365 0 01-.271-.163l-1.654-2.48.665-.666 2.539 2.222-.98.98zm1.199.561l.025-.584.378-.377.378.377.026.584h-.807zm.403-2.127l-2.357-2.062v-.813a4.383 4.383 0 002.357.685c.861 0 1.672-.25 2.358-.685v.813l-2.358 2.062zm2.172 1.51a.365.365 0 01-.272.163.365.365 0 01-.298-.107l-.98-.98 2.538-2.222.665.665-1.653 2.48z"/><path d="M13.472 18.165l-2.075-.906-1.133-1.134a.422.422 0 00-.273-.123v-.668a4.388 4.388 0 001.906-2.857c.111.005.224-.005.335-.032.543-.128.938-.65.938-1.238v-.31c0-.43-.214-.818-.544-1.045.097-.385.147-.78.147-1.176 0-1.76-.952-3.31-2.386-4.2-.015-1.47-1.269-2.66-2.809-2.66-1.54 0-2.793 1.19-2.808 2.66-1.434.89-2.385 2.44-2.385 4.2 0 .395.049.789.146 1.173a1.27 1.27 0 00-.544 1.053v.305c0 .589.395 1.11.938 1.238.111.027.224.037.335.032a4.388 4.388 0 001.907 2.857v.668a.422.422 0 00-.273.123L3.76 17.26l-2.075.905a2.827 2.827 0 00-1.683 2.694l.251 5.919a.425.425 0 00.85-.036l-.253-5.92a1.956 1.956 0 01.27-1.07l1.115 1.338c.352.423.546.96.546 1.51v4.159a.425.425 0 00.85 0v-4.16c0-.748-.264-1.477-.744-2.052l-1.185-1.423c.1-.07.208-.13.322-.18l1.808-.79 1.278 2.074a.821.821 0 001.233.194l.81-.691v7.028a.425.425 0 00.85 0V19.73l.809.69a.821.821 0 001.234-.193l1.277-2.074 1.808.79c.114.05.222.11.322.18l-1.185 1.423a3.213 3.213 0 00-.743 2.052v4.16a.425.425 0 00.85 0v-4.16c0-.55.193-1.086.546-1.509l1.115-1.338c.186.319.285.689.269 1.07l-.25 5.919a.425.425 0 00.848.036l.25-5.919a2.827 2.827 0 00-1.682-2.694zm-5.893-15.5c.903 0 1.666.577 1.891 1.358a5.349 5.349 0 00-1.89-.343c-.668 0-1.306.122-1.892.343.225-.78.988-1.357 1.892-1.357zm-3.487 9.637a.827.827 0 00-.86-.674.367.367 0 01-.111-.01c-.162-.038-.284-.215-.284-.411v-.305c0-.197.131-.375.3-.404a.37.37 0 01.363.139.595.595 0 00.814.128c.262-.185.493-.41.688-.67a.425.425 0 10-.68-.51 2.252 2.252 0 01-.324.35 1.217 1.217 0 00-.64-.283 3.957 3.957 0 01-.124-.976c0-2.286 1.949-4.146 4.345-4.146 2.395 0 4.344 1.86 4.344 4.146 0 .328-.041.655-.123.974a1.947 1.947 0 00-.33.055l-.32-.263a.815.815 0 00-.566-.186c-.625.037-3.823.121-5.463-1.842a.425.425 0 00-.652.545c.809.968 1.996 1.623 3.527 1.946 1.173.247 2.215.223 2.623.2l.499.41a.426.426 0 00.483.039.938.938 0 01.418-.056c.172.034.301.206.301.399v.31c0 .196-.122.373-.284.412a.363.363 0 01-.11.009.828.828 0 00-.86.674 3.544 3.544 0 01-6.974 0zm1.725 7.453L4.54 17.68l.655-.655 1.76 1.76-1.137.969zm1.762-1.546l-1.563-1.562v-.879a4.384 4.384 0 003.125 0v.879l-1.562 1.562zm1.761 1.546l-1.136-.97 1.76-1.759.654.655-1.278 2.074z"/><path d="M5.989 22.36H4.796a.425.425 0 000 .85H5.99a.425.425 0 000-.85z"/></g><defs><clipPath id="clip0"><path fill="#fff" d="M0 0h29v29H0z"/></clipPath></defs></svg>