<svg width="11" height="11" fill="none" xmlns="http://www.w3.org/2000/svg"><path d="M10.727 4.477l-.981-.118a4.383 4.383 0 00-.437-1.056l.61-.776a.318.318 0 00-.025-.411L8.883 1.104a.32.32 0 00-.411-.025l-.777.611a4.323 4.323 0 00-1.055-.436L6.523.273A.319.319 0 006.215 0h-1.43a.318.318 0 00-.308.273l-.118.981c-.374.1-.729.248-1.055.436l-.777-.61a.319.319 0 00-.41.025L1.103 2.117a.32.32 0 00-.023.411l.61.776a4.34 4.34 0 00-.437 1.056l-.98.118A.318.318 0 000 4.786v1.43c0 .152.123.29.273.308l.982.118c.1.373.247.727.436 1.054l-.61.777a.32.32 0 00.025.411l1.01 1.013a.32.32 0 00.41.025l.778-.612c.327.19.681.337 1.055.436l.118.981c.018.15.156.273.308.273h1.43c.152 0 .29-.122.308-.273l.118-.981c.374-.1.728-.247 1.055-.436l.777.61c.12.094.304.083.41-.024l1.012-1.013a.319.319 0 00.025-.411l-.61-.776a4.41 4.41 0 00.436-1.055l.98-.118A.318.318 0 0011 6.216V4.785a.317.317 0 00-.273-.308zM5.5 8.25a2.75 2.75 0 110-5.5 2.75 2.75 0 010 5.5z" fill="#fff"/></svg>