<svg width="18" height="18" fill="none" xmlns="http://www.w3.org/2000/svg"><g clip-path="url(#clip0)" fill="#fff" stroke="#fff" stroke-width=".3"><path d="M14.918 8.041h-.15v7.466H2.71V8.04H1.258v8.191c0 .401.325.726.726.726h13.51c.4 0 .726-.325.726-.726v-8.19h-1.302z"/><path d="M16.55 3.723H.91a.726.726 0 00-.727.726V8.21c0 .4.325.726.726.726h15.64a.726.726 0 00.726-.726V4.45a.726.726 0 00-.726-.726zm-.726 3.762H1.634v-2.31h14.19v2.31z"/><path d="M9.441 4.265h0a7.146 7.146 0 00-.876-1.927C7.964 1.424 6.993.499 5.535.499a2.34 2.34 0 00-2.339 2.338 2.33 2.33 0 002.319 2.338h3.224a.726.726 0 00.702-.91zm-3.926-.542h-.008a.866.866 0 01-.86-.886.9.9 0 01.887-.886c.578 0 1.046.283 1.42.679.313.33.554.733.73 1.093h-2.17z"/><path d="M8.912 2.338c.602-.914 1.572-1.839 3.032-1.839a2.34 2.34 0 012.337 2.338 2.33 2.33 0 01-2.318 2.338H8.739a.726.726 0 01-.702-.91l.875-1.927zm0 0a7.146 7.146 0 00-.875 1.927l.875-1.927zm.88 1.385h2.17a.866.866 0 00.868-.886l-3.038.886zm0 0a4.36 4.36 0 01.727-1.093c.374-.396.844-.68 1.425-.68a.9.9 0 01.886.887l-3.038.886z"/><path d="M9.465 4.45V4.3H8.013v12.082h1.452V4.45z"/></g><defs><clipPath id="clip0"><path fill="#fff" transform="translate(.333 .333)" d="M0 0h16.792v16.792H0z"/></clipPath></defs></svg>