<svg width="18" height="18" fill="none" xmlns="http://www.w3.org/2000/svg"><path d="M16.383 3.095h-4.08A1.971 1.971 0 0012.08.578a1.97 1.97 0 00-2.785 0C9.21.664 9.106.788 9 1a1.572 1.572 0 00-.295-.422 1.97 1.97 0 00-2.785 0 1.972 1.972 0 00-.223 2.517h-4.08C.725 3.095 0 3.82 0 4.712v1.266c0 .72.473 1.331 1.125 1.54v8.866c0 .892.725 1.617 1.617 1.617h12.516c.892 0 1.617-.725 1.617-1.617V7.518A1.62 1.62 0 0018 5.978V4.712a1.62 1.62 0 00-1.617-1.617zM9.563 6.47H8.437V4.22h1.126v2.25zm.132-3.851c.174-1 .374-1.224.396-1.246a.841.841 0 011.193 0 .845.845 0 010 1.193c-.022.023-.245.221-1.236.395a13.11 13.11 0 01-.415.064c.017-.127.037-.265.062-.406zm-2.98-1.246a.841.841 0 011.194 0c.022.022.221.245.395 1.237.025.144.046.285.063.415a10.786 10.786 0 01-.406-.063c-.999-.173-1.223-.373-1.245-.396a.845.845 0 010-1.193zm-5.59 3.339c0-.271.22-.492.492-.492h5.696v2.25H1.617a.493.493 0 01-.493-.492V4.712zM2.25 16.384v-8.79h5.063v9.282h-4.57a.493.493 0 01-.493-.492zm6.188.492V7.595h1.124v9.281H8.438zm7.312-.492c0 .271-.22.492-.492.492h-4.57V7.595h5.062v8.789zm1.125-10.406c0 .271-.22.492-.492.492h-5.695V4.22h5.695c.271 0 .492.22.492.492v1.266z" fill="#fff"/></svg>