<svg width="12" height="12" fill="none" xmlns="http://www.w3.org/2000/svg"><g clip-path="url(#clip0)" fill="#000"><path d="M9.375 12h-6.75c-.62 0-1.125-.505-1.125-1.125v-5.25c0-.62.505-1.125 1.125-1.125h6.75c.62 0 1.125.505 1.125 1.125v5.25c0 .62-.505 1.125-1.125 1.125zm-6.75-6.75a.375.375 0 00-.375.375v5.25c0 .207.168.375.375.375h6.75a.375.375 0 00.375-.375v-5.25a.375.375 0 00-.375-.375h-6.75z"/><path d="M8.625 5.25a.375.375 0 01-.375-.375V3C8.25 1.76 7.24.75 6 .75S3.75 1.76 3.75 3v1.875a.375.375 0 01-.75 0V3c0-1.655 1.346-3 3-3s3 1.345 3 3v1.875a.375.375 0 01-.375.375zM6 8.5a1.001 1.001 0 010-2 1.001 1.001 0 010 2zm0-1.25a.25.25 0 100 .5.25.25 0 000-.5z"/><path d="M6 10a.375.375 0 01-.375-.375V8.25a.375.375 0 01.75 0v1.375A.375.375 0 016 10z"/></g><defs><clipPath id="clip0"><path fill="#fff" d="M0 0h12v12H0z"/></clipPath></defs></svg>