<svg width="26" height="26" fill="none" xmlns="http://www.w3.org/2000/svg"><path d="M3.555 13.405a.508.508 0 100 1.016.508.508 0 000-1.016z" fill="#fff"/><path d="M26 15.183c0-.717-.332-1.358-.85-1.777.66-.534.95-1.36.819-2.158-.177-1.086-1.187-1.905-2.35-1.905h-4.837l.151-.452c.86-2.581.061-5.34-1.833-6.953-1.058-.913-2.863-.609-3.417.901a.508.508 0 00-.008.328c.422 1.342.428 2.244.02 3.114-.422.902-1.33 1.85-3.037 3.168-.41.316-.767.51-1.114.697-.545.294-1.063.574-1.599 1.228H6.094v-.508a.508.508 0 00-.508-.508H.508a.508.508 0 00-.508.508V24.07c0 .28.227.508.508.508h5.078c.28 0 .508-.227.508-.508v-1.523h2.848a8.042 8.042 0 005.359 2.031h6.367a2.284 2.284 0 001.899-3.555h.132a2.284 2.284 0 001.799-3.692A2.285 2.285 0 0026 15.183zM5.078 23.562H1.016V11.374h4.062v12.188zm18.637-7.11H18.84a.508.508 0 000 1.016h3.86a1.269 1.269 0 110 2.54l-3.86-.001a.508.508 0 000 1.015h1.828a1.269 1.269 0 110 2.54h-6.367a7.03 7.03 0 01-4.816-1.895.508.508 0 00-.346-.137H6.094v-9.14h2.1a.508.508 0 00.409-.207c.458-.622.863-.841 1.424-1.144.364-.197.777-.42 1.252-.786 3.477-2.686 4.273-4.331 3.42-7.207.338-.648 1.177-.822 1.774-.307 1.618 1.415 2.206 3.703 1.497 5.831l-.258.773h-.65a.508.508 0 000 1.016h6.558c.67 0 1.249.452 1.347 1.052a1.27 1.27 0 01-1.252 1.487H18.84a.508.508 0 000 1.015h4.875a1.269 1.269 0 110 2.539z" fill="#fff"/><path d="M3.555 15.437a.508.508 0 00-.508.507v5.079a.508.508 0 001.015 0v-5.079a.508.508 0 00-.507-.508z" fill="#fff"/></svg>