<svg width="18" height="18" fill="none" xmlns="http://www.w3.org/2000/svg"><g clip-path="url(#clip0)"><path d="M1.125 1.224C-.29 2.694 0 4.254 0 8.996c0 3.937-.687 7.885 2.908 8.814 1.123.289 11.071.289 12.192-.002 1.497-.386 2.715-1.6 2.882-3.717.023-.296.023-9.89-.001-10.19-.177-2.256-1.565-3.556-3.395-3.819-.419-.06-.503-.079-2.654-.083C4.302.003 2.63-.337 1.125 1.224z" fill="url(#paint0_linear)"/><path d="M8.998 2.354c-2.723 0-5.309-.242-6.297 2.293C2.293 5.694 2.353 7.054 2.353 9c0 1.708-.055 3.314.348 4.353.986 2.536 3.593 2.293 6.296 2.293 2.608 0 5.296.272 6.296-2.293.409-1.058.349-2.397.349-4.353 0-2.597.143-4.273-1.116-5.532-1.275-1.275-3-1.115-5.53-1.115h.002zm-.595 1.198c5.68-.01 6.403-.64 6.004 8.132-.141 3.103-2.504 2.762-5.408 2.762-5.295 0-5.447-.151-5.447-5.448 0-5.36.42-5.443 4.85-5.448v.002zm4.143 1.103a.797.797 0 100 1.595.797.797 0 000-1.595zm-3.548.932A3.413 3.413 0 109 12.413a3.413 3.413 0 000-6.826zm0 1.198c2.93 0 2.933 4.431 0 4.431-2.928 0-2.932-4.43 0-4.43z" fill="#fff"/></g><defs><linearGradient id="paint0_linear" x1="1.159" y1="16.85" x2="17.888" y2="2.371" gradientUnits="userSpaceOnUse"><stop stop-color="#FD5"/><stop offset=".5" stop-color="#FF543E"/><stop offset="1" stop-color="#C837AB"/></linearGradient><clipPath id="clip0"><path fill="#fff" d="M0 0h18v18H0z"/></clipPath></defs></svg>