<svg width="182" height="35" fill="none" xmlns="http://www.w3.org/2000/svg"><path d="M63.055 18.703v-2.415L0 15.991v2.415l3.077 1.207C3.582 20.385 13.227 35 31.68 35a34.29 34.29 0 0016.327-4.079A33.512 33.512 0 0060.29 19.613" fill="#000"/><path d="M29.833 6.036C18.735 6.036 4.61 11.47 4.61 11.47l-1.846 2.968h57.214l-1.23-2.365C47.063 6.64 33.524 6.036 33.524 6.036v-1.81l2.462-1.208V0H27.37v3.018l2.462 1.207" fill="url(#paint0_linear)"/><path opacity=".7" d="M80.875 27.982c.415 0 .758-.136 1.02-.406.271-.271.407-.606.407-.994s-.136-.723-.407-.994a1.389 1.389 0 00-1.02-.406c-.407 0-.75.135-1.02.406-.272.271-.407.606-.407.994s.135.723.406.994c.28.27.614.406 1.02.406zm-2.882 2.023l-3.251-4.715h-.678v6.323h.84v-4.724l3.252 4.724h.677V25.29h-.84v4.715zm2.367-2.908a.773.773 0 010-1.03c.262-.28.768-.28 1.03 0 .261.28.261.75 0 1.03-.262.28-.768.28-1.03 0zm1.834 2.213v-.75h-2.638v.75h2.638zm1.02-3.442l.207.723 1.346-.397v5.419h.831V25.29h-.722l-1.662.578zm6.489 1.229v4.516h.786v-3.767h2.339v3.767h.786v-4.516h-3.911zm9.19 3.947c.46-.46.695-1.02.695-1.69 0-.668-.235-1.227-.695-1.688a2.308 2.308 0 00-1.69-.687c-.659 0-1.228.226-1.689.687-.46.46-.686 1.02-.686 1.689 0 .668.226 1.228.686 1.689.461.46 1.03.686 1.69.686.659 0 1.228-.226 1.689-.686zm-1.69-.081a1.54 1.54 0 01-1.129-.461 1.552 1.552 0 01-.46-1.147c0-.46.153-.84.46-1.147a1.54 1.54 0 011.13-.46c.451 0 .83.153 1.138.46.307.307.46.686.46 1.147 0 .46-.153.84-.46 1.147-.308.307-.687.46-1.138.46zm6.111-3.866v4.516h.786v-3.767h2.34v3.767h.785v-4.516h-3.911zm7.871-.118c-.749 0-1.318.298-1.707.895v-.777h-.786v6.322h.786v-2.583c.389.596.958.894 1.707.894.633 0 1.175-.226 1.617-.686a2.36 2.36 0 00.669-1.69 2.34 2.34 0 00-.669-1.68 2.165 2.165 0 00-1.617-.695zm-.099 3.993c-.461 0-.84-.154-1.147-.461a1.588 1.588 0 01-.461-1.156c0-.46.154-.84.461-1.147.307-.316.686-.47 1.147-.47.452 0 .831.154 1.138.47.307.307.461.686.461 1.147 0 .46-.154.84-.461 1.156-.307.307-.686.46-1.138.46zm7.405.072c.46-.46.695-1.02.695-1.69 0-.668-.235-1.227-.695-1.688a2.307 2.307 0 00-1.689-.687c-.66 0-1.229.226-1.689.687-.461.46-.687 1.02-.687 1.689 0 .668.226 1.228.687 1.689.46.46 1.029.686 1.689.686.659 0 1.228-.226 1.689-.686zm-1.689-.081a1.54 1.54 0 01-1.129-.461 1.553 1.553 0 01-.461-1.147c0-.46.154-.84.461-1.147a1.54 1.54 0 011.129-.46c.451 0 .831.153 1.138.46.307.307.46.686.46 1.147 0 .46-.153.84-.46 1.147-.307.307-.687.46-1.138.46zm7.289-3.866h-3.333v2.095c0 .714-.145 1.274-.434 1.671h-.551v1.96h.777v-1.21h3.387v1.21h.777v-1.96h-.623v-3.766zm-2.873 3.766c.208-.442.317-.993.317-1.67v-1.365h1.779v3.035h-2.096zm8.177-2.99c-.388-.596-.957-.894-1.707-.894-.632 0-1.174.235-1.617.696a2.337 2.337 0 00-.668 1.68c0 .66.225 1.228.668 1.689.443.46.985.686 1.617.686.75 0 1.319-.298 1.707-.894v.777h.786v-4.516h-.786v.776zm-1.608 3.099c-.451 0-.831-.154-1.138-.461a1.588 1.588 0 01-.461-1.156c0-.46.154-.84.461-1.147a1.52 1.52 0 011.138-.47c.461 0 .84.154 1.147.47.307.307.461.686.461 1.147 0 .46-.154.84-.461 1.156-.307.307-.686.46-1.147.46zm7.514-1.69l1.806-2.185h-.921l-1.599 1.996v-1.996h-.776v1.996l-1.599-1.996h-.912l1.797 2.186-1.888 2.33h.913l1.689-2.14v2.14h.776v-2.14l1.689 2.14h.922l-1.897-2.33zm6.893.434a2.32 2.32 0 00.027-.352c0-.66-.208-1.22-.633-1.68-.415-.47-.957-.705-1.616-.705-.696 0-1.265.226-1.707.678-.443.451-.66 1.02-.66 1.698 0 .686.226 1.255.669 1.707.451.442 1.038.668 1.752.668.885 0 1.544-.343 1.987-1.02l-.668-.38c-.271.443-.705.66-1.301.66-.858 0-1.481-.47-1.635-1.274h3.785zm-2.222-1.996c.722 0 1.318.452 1.454 1.31h-3.017c.136-.795.723-1.31 1.563-1.31zm7.542 1.563l2.158-2.186h-1.011l-1.951 1.996v-1.996h-.786v4.516h.786v-2.14l2.059 2.14h.976l-2.231-2.33zm6.557-1.41c-.388-.596-.957-.894-1.707-.894-.632 0-1.174.235-1.617.696a2.341 2.341 0 00-.668 1.68c0 .66.226 1.228.668 1.689.443.46.985.686 1.617.686.75 0 1.319-.298 1.707-.894v.777h.786v-4.516h-.786v.776zm-1.608 3.099c-.451 0-.831-.154-1.138-.461a1.587 1.587 0 01-.46-1.156c0-.46.153-.84.46-1.147a1.52 1.52 0 011.138-.47c.461 0 .84.154 1.147.47.308.307.461.686.461 1.147 0 .46-.153.84-.461 1.156-.307.307-.686.46-1.147.46zm6.295-1.671c.361-.217.542-.551.542-1.012 0-.732-.615-1.31-1.599-1.31-.795 0-1.355.335-1.671.994l.641.37c.181-.424.524-.641 1.03-.641.515 0 .831.262.831.65 0 .389-.262.623-.723.623h-.487v.714h.659c.461 0 .75.253.75.614 0 .407-.344.696-.949.696s-.993-.244-1.165-.74l-.659.387c.307.723.912 1.084 1.815 1.084 1.111 0 1.734-.596 1.734-1.355 0-.514-.253-.867-.749-1.074zm5.611-1.427c-.388-.597-.957-.895-1.707-.895-.632 0-1.174.235-1.617.696a2.341 2.341 0 00-.668 1.68c0 .66.226 1.228.668 1.689.443.46.985.686 1.617.686.75 0 1.319-.298 1.707-.894v.777h.786v-4.516h-.786v.776zm-1.608 3.098c-.451 0-.831-.154-1.138-.461a1.587 1.587 0 01-.46-1.156c0-.46.153-.84.46-1.147a1.52 1.52 0 011.138-.47c.461 0 .84.154 1.147.47.307.307.461.686.461 1.147 0 .46-.154.84-.461 1.156-.307.307-.686.46-1.147.46zm6.981-1.997h-2.339v-1.878h-.786v4.516h.786v-1.888h2.339v1.888h.786v-4.516h-.786v1.878zm6.064 2.069c.461-.46.696-1.02.696-1.69 0-.668-.235-1.227-.696-1.688-.461-.46-1.03-.687-1.689-.687s-1.228.226-1.689.687c-.461.46-.686 1.02-.686 1.689 0 .668.225 1.228.686 1.689.461.46 1.03.686 1.689.686s1.228-.226 1.689-.686zm-1.689-.081a1.54 1.54 0 01-1.129-.461 1.553 1.553 0 01-.461-1.147c0-.46.154-.84.461-1.147a1.54 1.54 0 011.129-.46c.452 0 .831.153 1.138.46.307.307.461.686.461 1.147 0 .46-.154.84-.461 1.147-.307.307-.686.46-1.138.46zm6.59-1.671c.325-.208.488-.533.488-.967 0-.732-.515-1.228-1.418-1.228h-2.078v4.516h2.259c.93 0 1.445-.524 1.445-1.274 0-.505-.235-.858-.696-1.047zm-.966-1.49c.46 0 .686.189.686.577 0 .407-.226.605-.686.605h-1.274v-1.183h1.274zm-1.274 3.097V29.68h1.445c.461 0 .714.226.714.596 0 .398-.253.623-.714.623h-1.445z" fill="#2F2F2F"/><path d="M83.291 6.887l-5.163 5.624.998-5.624h-3.07l-2.362 13.436h3.071l1.114-6.392 3.512 6.392h3.167l-3.743-6.833 6.104-6.603H83.29zM98.56 20.323L96.352 6.887h-3.915l-6.929 13.436h3.359l1.075-2.112h4.99l.269 2.112h3.359zm-4.607-10.077l.634 5.086H91.38l2.572-5.086zm16.505.537c.211-1.209-.077-2.188-.883-2.975-.787-.787-1.842-1.19-3.128-1.19-2.342 0-4.088.96-5.259 2.86l2.514 1.593c.595-1.055 1.344-1.574 2.246-1.574 1.075 0 1.535.48 1.401 1.325-.173.883-.845 1.324-2.054 1.324h-1.324l-.48 2.726h1.708c1.248 0 1.824.518 1.67 1.42-.173.864-.979 1.42-2.073 1.42-1.382 0-2.015-.633-2.341-1.766l-2.803 1.46c.634 1.995 2.227 3.185 4.703 3.185 3.051 0 5.086-1.4 5.527-3.877.25-1.382-.172-2.457-1.247-3.205 1.017-.614 1.612-1.516 1.823-2.726zm12.795 9.54l-2.207-13.436h-3.916l-6.928 13.436h3.358l1.075-2.112h4.991l.268 2.112h3.359zm-4.606-10.077l.633 5.086h-3.205l2.572-5.086zm15.08 1.785h-4.222l.902-5.144h-3.071l-2.361 13.436h3.071l.94-5.336h4.223l-.94 5.336h3.07L137.7 6.887h-3.071l-.902 5.144zm14.998-.154l.365-2.034h5.566l.518-2.956h-8.637l-2.361 13.436h5.183c2.917 0 4.856-1.478 5.316-4.031.211-1.267-.038-2.323-.787-3.148-.729-.844-1.746-1.267-3.032-1.267h-2.131zm2.918 4.223c-.154.902-.749 1.343-1.785 1.343h-2.112l.48-2.687h2.112c.921 0 1.458.423 1.305 1.344zm15.047-9.213h-8.349l-2.361 13.436h8.446l.518-2.956h-5.374l.422-2.4h4.798l.519-2.879h-4.818l.403-2.245h5.278l.518-2.956zm-.916 13.474c2.437.23 5.355-.326 6.257-5.49l.883-5.028h3.147l-1.842 10.48h3.071l2.361-13.436h-9.29l-1.42 8.1c-.384 2.13-1.19 2.668-2.668 2.495l-.499 2.879z" fill="#2F2F2F"/><path d="M139.699 20.591a2.155 2.155 0 002.15-1.785c.173-.998-.499-1.861-1.497-1.861a2.163 2.163 0 00-2.13 1.785c-.173.998.479 1.861 1.477 1.861z" fill="#FF9957"/><defs><linearGradient id="paint0_linear" x1="24.223" y1="26.628" x2="38.853" y2=".804" gradientUnits="userSpaceOnUse"><stop stop-color="#FFAC5F"/><stop offset="1" stop-color="#DB6A01"/></linearGradient></defs></svg>