<svg width="15" height="15" fill="none" xmlns="http://www.w3.org/2000/svg"><path d="M7.53 6.152a1.32 1.32 0 00-1.32 1.319 1.32 1.32 0 001.32 1.318 1.32 1.32 0 001.318-1.318 1.32 1.32 0 00-1.319-1.319z" fill="#FF9957"/><path d="M7.47 0C3.352 0 0 3.351 0 7.47 0 11.59 3.351 15 7.47 15 11.59 15 15 11.59 15 7.47 15 3.352 11.59 0 7.47 0zm3.135 9.668a1.754 1.754 0 01-1.436-.75c-.402.456-.985.75-1.64.75a2.2 2.2 0 01-2.197-2.197 2.2 2.2 0 012.197-2.198c.497 0 .95.172 1.319.451v-.011a.44.44 0 11.879 0V7.91a.88.88 0 001.757 0c0-2.941-1.946-4.394-3.955-4.394A3.96 3.96 0 003.574 7.47a3.96 3.96 0 003.955 3.955c.88 0 1.71-.282 2.404-.815.464-.354.995.345.536.697a4.787 4.787 0 01-2.94.997A4.84 4.84 0 012.695 7.47 4.84 4.84 0 017.53 2.637c2.429 0 4.834 1.79 4.834 5.273a1.76 1.76 0 01-1.758 1.758z" fill="#FF9957"/></svg>