<svg width="93" height="97" fill="none" xmlns="http://www.w3.org/2000/svg"><path d="M47 95L35.742 75.5h22.516L47 95z" fill="#FF9A64" stroke="#fff" stroke-width="2"/><g filter="url(#filter0_d)"><circle cx="46.5" cy="42.5" r="36.5" fill="#FF9A64"/><circle cx="46.5" cy="42.5" r="35.5" stroke="#fff" stroke-width="2"/></g><path d="M68 43.854v-1.65L25 42v1.651l2.098.826C27.442 45.005 34.02 55 46.603 55c3.892.01 7.722-.95 11.134-2.79a22.878 22.878 0 008.378-7.733M45.451 35.18c-7.565 0-17.192 3.764-17.192 3.764L27 41h39l-.839-1.638c-7.964-3.763-17.193-4.181-17.193-4.181v-1.254l1.678-.837V31h-5.873v2.09l1.678.837" fill="#fff"/><defs><filter id="filter0_d" x="0" y="0" width="93" height="93" filterUnits="userSpaceOnUse" color-interpolation-filters="sRGB"><feFlood flood-opacity="0" result="BackgroundImageFix"/><feColorMatrix in="SourceAlpha" values="0 0 0 0 0 0 0 0 0 0 0 0 0 0 0 0 0 0 127 0"/><feOffset dy="4"/><feGaussianBlur stdDeviation="5"/><feColorMatrix values="0 0 0 0 0 0 0 0 0 0 0 0 0 0 0 0 0 0 0.15 0"/><feBlend in2="BackgroundImageFix" result="effect1_dropShadow"/><feBlend in="SourceGraphic" in2="effect1_dropShadow" result="shape"/></filter></defs></svg>