<svg width="25" height="23" fill="none" xmlns="http://www.w3.org/2000/svg"><path d="M24.965 12.915l-4.72-11.852a.49.49 0 00-.638-.274L.457 8.414a.48.48 0 00-.195.156.485.485 0 00-.262.426v12.76c0 .27.22.49.49.49h20.613a.49.49 0 00.49-.49v-6.97l3.098-1.233a.49.49 0 00.274-.638zm-4.353 8.35H.982V9.487h19.63v11.778zM8.188 8.508l8.217-3.275a3.905 3.905 0 002.814 1.213l.82 2.062H8.189zm13.405 5.225V8.996a.49.49 0 00-.49-.49h-.008l-1.04-2.613a.41.41 0 00-.04-.061.485.485 0 00-.513-.378 2.935 2.935 0 01-2.573-1.108.486.486 0 00-.63-.11.552.552 0 00-.07.012L6.199 8.243a.485.485 0 00-.27.262H2.882l16.632-6.623 4.358 10.942-2.279.909z" fill="#FF9957"/><path d="M2.313 17.951a2.934 2.934 0 011.982 1.98.49.49 0 00.47.35.45.45 0 00.075-.012.512.512 0 00.068.014h11.778a.405.405 0 00.06-.012.457.457 0 00.552-.336v-.003a2.934 2.934 0 011.981-1.981.484.484 0 00.337-.54.485.485 0 00.014-.073v-3.926a.427.427 0 00-.014-.072.484.484 0 00-.337-.54 2.931 2.931 0 01-1.98-1.982.485.485 0 00-.544-.336.465.465 0 00-.07-.014H4.909a.455.455 0 00-.074.014.485.485 0 00-.54.337 2.934 2.934 0 01-1.98 1.98.484.484 0 00-.337.54.494.494 0 00-.014.073v3.926a.454.454 0 00.014.069c-.04.24.103.473.336.544zm.632-4.34a3.894 3.894 0 002.162-2.162h11.379a3.896 3.896 0 002.163 2.163v3.527a3.899 3.899 0 00-2.163 2.162H5.106a3.899 3.899 0 00-2.161-2.162v-3.527z" fill="#FF9957"/><path d="M10.797 18.32a2.945 2.945 0 100-5.888 2.945 2.945 0 000 5.889zm0-4.907a1.963 1.963 0 110 3.926 1.963 1.963 0 010-3.926zm-5.399 2.699a.736.736 0 100-1.472.736.736 0 000 1.472zm0-.982a.245.245 0 110 .491.245.245 0 010-.49zm10.797.982a.736.736 0 100-1.472.736.736 0 000 1.472zm0-.982a.245.245 0 110 .491.245.245 0 010-.49z" fill="#FF9957"/></svg>