<svg width="14" height="14" fill="none" xmlns="http://www.w3.org/2000/svg"><circle cx="7" cy="7" r="7" fill="#FF9B64"/><path fill="#FF9B64" d="M1.272 5.091h11.454v5.091H1.272z"/><g clip-path="url(#clip0)"><path d="M10.664 9.53l-.85-4.74a.4.4 0 00-.393-.33H8.008c.265-.26.43-.622.43-1.023A1.44 1.44 0 007 2a1.44 1.44 0 00-1.437 1.437c0 .4.164.763.43 1.024H4.58a.4.4 0 00-.394.33l-.85 4.738A.4.4 0 003.73 10h6.54a.4.4 0 00.394-.47zM7 2.8a.638.638 0 110 1.277A.638.638 0 017 2.8zm-.104 5.394a.12.12 0 01-.105.063h-.189a.12.12 0 01-.103-.06L6.032 7.4l-.3.305v.367a.184.184 0 01-.368 0V6.615a.184.184 0 01.369 0v.627l.71-.772a.12.12 0 01.087-.039h.162a.12.12 0 01.086.202l-.492.509.605.93a.12.12 0 01.005.122zm1.815-.243a.12.12 0 01-.045.093c-.073.059-.17.112-.29.158a1.222 1.222 0 01-.445.086 1 1 0 01-.5-.12.764.764 0 01-.32-.344 1.11 1.11 0 01-.107-.486c0-.19.04-.36.12-.507a.805.805 0 01.35-.34.944.944 0 01.437-.091c.226 0 .403.047.53.143.056.04.103.089.14.143a.188.188 0 01-.119.293.182.182 0 01-.188-.082.376.376 0 00-.098-.104.439.439 0 00-.265-.078.5.5 0 00-.385.153c-.095.102-.142.254-.142.455 0 .216.048.379.144.487a.482.482 0 00.379.163.635.635 0 00.232-.046.799.799 0 00.2-.11v-.232h-.268a.154.154 0 110-.307h.521a.12.12 0 01.12.119v.554z" fill="#fff"/></g><defs><clipPath id="clip0"><path fill="#fff" transform="translate(3 2)" d="M0 0h8v8H0z"/></clipPath></defs></svg>