<svg width="14" height="22" fill="none" xmlns="http://www.w3.org/2000/svg"><circle cx="7" cy="10" r="7" fill="#FF9B64"/><path fill="#FF9B64" d="M1.272 8.091h11.454v5.091H1.272z"/><path d="M4.484 13.6l-.924-.994.63-.644c-.401-.55-.602-1.19-.602-1.918 0-.616.15-1.176.448-1.68a3.46 3.46 0 011.218-1.218 3.206 3.206 0 011.68-.462 3.2 3.2 0 011.918.616l.714-.714.896 1.022-.672.686a3.19 3.19 0 01.49 1.75c0 .607-.15 1.167-.448 1.68a3.46 3.46 0 01-1.218 1.218 3.233 3.233 0 01-1.68.448 3.19 3.19 0 01-1.75-.49l-.7.7zm.77-2.688l2.548-2.548a1.64 1.64 0 00-.868-.238c-.355 0-.677.089-.966.266-.29.168-.523.397-.7.686a1.89 1.89 0 00-.252.966c0 .308.08.597.238.868zm1.68 1.05c.355 0 .677-.084.966-.252a1.86 1.86 0 00.686-.686c.177-.29.266-.616.266-.98 0-.233-.047-.453-.14-.658l-2.436 2.422c.205.103.425.154.658.154z" fill="#fff"/></svg>