<svg width="14" height="14" fill="none" xmlns="http://www.w3.org/2000/svg"><circle cx="7" cy="7" r="7" fill="#FF9B64"/><path fill="#FF9B64" d="M1.272 5.091h11.454v5.091H1.272z"/><g clip-path="url(#clip0)" fill="#fff"><path d="M10.875 6.764a.285.285 0 00-.025-.015l-.568-.306L7.134 8.11a.286.286 0 01-.268 0L3.718 6.443l-.568.306a.283.283 0 00-.102.407L7 9.248l3.952-2.092a.283.283 0 00-.077-.392z"/><path d="M10.966 8.579a.286.286 0 00-.116-.116l-.568-.306-3.148 1.667a.286.286 0 01-.268 0L3.718 8.157l-.568.306a.286.286 0 000 .503l3.715 2a.286.286 0 00.27 0l3.715-2a.286.286 0 00.116-.387zm-.091-3.529a.285.285 0 00-.025-.016l-3.715-2a.286.286 0 00-.27 0l-3.715 2a.283.283 0 00-.102.408L7 7.534l3.952-2.092a.283.283 0 00-.077-.393z"/></g><defs><clipPath id="clip0"><path fill="#fff" transform="translate(3 3)" d="M0 0h8v8H0z"/></clipPath></defs></svg>