<svg width="12" height="12" fill="none" xmlns="http://www.w3.org/2000/svg"><path d="M4.97 7.031c-1.146-1.145-1.405-2.29-1.463-2.75a.411.411 0 01.118-.344l.927-.926a.414.414 0 00.058-.513L3.134.207a.414.414 0 00-.536-.15L.23 1.171a.412.412 0 00-.227.411C.126 2.763.64 5.661 3.489 8.51c2.849 2.85 5.747 3.364 6.927 3.488a.411.411 0 00.412-.228l1.115-2.369a.414.414 0 00-.15-.535L9.502 7.39a.414.414 0 00-.512.058l-.927.927a.411.411 0 01-.344.118c-.459-.058-1.604-.317-2.75-1.462z" fill="#FF9957"/><path d="M9.517 6.414A.414.414 0 019.104 6 3.107 3.107 0 006 2.897a.414.414 0 110-.828A3.935 3.935 0 019.931 6a.414.414 0 01-.414.414z" fill="#FF9957"/><path d="M11.586 6.414A.414.414 0 0111.173 6 5.178 5.178 0 006 .828.414.414 0 016 0a6.007 6.007 0 016 6 .414.414 0 01-.414.414z" fill="#FF9957"/></svg>