<svg width="21" height="24" fill="none" xmlns="http://www.w3.org/2000/svg"><path d="M10.351 6.862c-2.117 0-3.09 1.255-3.09 2.101 0 .612.518.894.942.894.846 0 .501-1.207 2.1-1.207.785 0 1.412.345 1.412 1.066 0 .847-.878 1.334-1.395 1.773-.455.392-1.051 1.035-1.051 2.384 0 .815.22 1.05.863 1.05.768 0 .925-.345.925-.643 0-.815.015-1.286.878-1.96.423-.33 1.756-1.396 1.756-2.87 0-1.475-1.333-2.588-3.34-2.588zm-.203 9.144c-.659 0-1.192.549-1.192 1.207 0 .643.518 1.208 1.192 1.208.674 0 1.207-.565 1.207-1.208 0-.658-.549-1.207-1.207-1.207z" fill="#fff"/><path d="M19.125 4.964l-6.771-3.905a3.722 3.722 0 00-3.708 0L1.875 4.964A3.722 3.722 0 00.018 8.179v7.804c0 1.323.711 2.555 1.857 3.216l6.771 3.905a3.72 3.72 0 003.708 0l6.77-3.905a3.722 3.722 0 001.858-3.216V8.18a3.722 3.722 0 00-1.857-3.215zm.058 11.02c0 .68-.367 1.315-.957 1.655l-6.771 3.905c-.59.34-1.321.34-1.91 0L2.774 17.64a1.917 1.917 0 01-.957-1.657V8.18c0-.681.367-1.316.957-1.656l6.771-3.905c.59-.34 1.32-.34 1.91 0l6.771 3.905c.59.34.957.975.957 1.656v7.804z" fill="#fff"/></svg>