<svg width="15" height="15" fill="none" xmlns="http://www.w3.org/2000/svg"><path d="M12.857 0a.536.536 0 00-.536.536v1.957A6.95 6.95 0 00.536 7.5a.536.536 0 101.071 0 5.893 5.893 0 0110.24-3.978l-2.373.792a.536.536 0 00.338 1.017l3.214-1.071a.536.536 0 00.367-.51V.536A.536.536 0 0012.857 0zm1.071 6.964a.536.536 0 00-.535.536 5.893 5.893 0 01-10.24 3.978l2.373-.791a.536.536 0 10-.338-1.018L1.973 10.74a.536.536 0 00-.366.51v3.214a.536.536 0 001.071 0v-1.957A6.95 6.95 0 0014.464 7.5a.536.536 0 00-.536-.536z" fill="#78D260"/></svg>