<svg width="39" height="39" fill="none" xmlns="http://www.w3.org/2000/svg"><path d="M34.125 19.5c0-3.186-2.052-5.896-4.901-6.895.008-.14.026-.278.026-.418 0-4.032-3.28-7.312-7.313-7.312a7.298 7.298 0 00-5.868 2.968 4.23 4.23 0 00-2.053-.53 4.27 4.27 0 00-4.266 4.265 4.25 4.25 0 001.286 3.047H5.484a.61.61 0 100 1.219h12.797a2.44 2.44 0 002.438-2.438.61.61 0 10-1.219 0 1.22 1.22 0 01-1.219 1.219h-4.265a3.05 3.05 0 01-3.047-3.047 3.05 3.05 0 014.457-2.701 7.26 7.26 0 00-.801 3.31.61.61 0 101.219 0 6.1 6.1 0 016.094-6.093 6.1 6.1 0 016.093 6.093c0 .037-.006.073-.006.11a7.295 7.295 0 00-1.212-.11h-1.829a.61.61 0 100 1.22h1.828a6.1 6.1 0 016.094 6.093 6.1 6.1 0 01-6.093 6.094h-1.829a.61.61 0 100 1.218h1.828c.414 0 .817-.042 1.212-.109.001.037.007.072.007.11a6.1 6.1 0 01-6.093 6.093 6.1 6.1 0 01-6.094-6.093.61.61 0 10-1.219 0c0 1.191.293 2.315.8 3.31a3.05 3.05 0 01-4.457-2.7 3.05 3.05 0 013.048-3.048h4.265a1.22 1.22 0 011.219 1.219.61.61 0 101.219 0 2.44 2.44 0 00-2.438-2.438H5.484a.61.61 0 100 1.219h5.552a4.25 4.25 0 00-1.286 3.047 4.27 4.27 0 004.266 4.265c.729 0 1.427-.185 2.053-.53a7.298 7.298 0 005.869 2.968c4.032 0 7.312-3.28 7.312-7.313 0-.139-.018-.277-.026-.417 2.85-1 4.901-3.709 4.901-6.895z" fill="#fff"/><path d="M30.469 19.5a3.66 3.66 0 00-3.657-3.656 3.66 3.66 0 00-3.656 3.656 3.66 3.66 0 003.657 3.656 3.66 3.66 0 003.656-3.656zm-6.094 0a2.44 2.44 0 012.438-2.438A2.44 2.44 0 0129.25 19.5a2.44 2.44 0 01-2.438 2.438 2.44 2.44 0 01-2.437-2.438zm-3.047.61a.61.61 0 100-1.22H6.703a.61.61 0 100 1.22h14.625z" fill="#fff"/></svg>