<svg width="14" height="14" fill="none" xmlns="http://www.w3.org/2000/svg"><g clip-path="url(#clip0)"><path d="M13.98 5.393a.41.41 0 00-.331-.279l-4.34-.63L7.368.55a.41.41 0 00-.736 0l-1.94 3.933-4.34.63a.41.41 0 00-.228.7l3.14 3.061-.741 4.323a.41.41 0 00.595.432L7 11.59l3.882 2.04a.41.41 0 00.595-.432l-.742-4.323 3.141-3.061a.41.41 0 00.104-.42z" fill="#F9B403"/><path d="M13.742 5.47h0a.16.16 0 01-.04.165h0L10.56 8.696l-.094.092.022.13.741 4.322a.16.16 0 01-.232.169l-3.882-2.041L7 11.307l-.116.06-3.882 2.042h0a.16.16 0 01-.233-.169h0l.742-4.323.022-.13-.094-.09-3.14-3.062h0a.16.16 0 01-.041-.164h0a.16.16 0 01.13-.11h0l4.34-.63.13-.019.057-.118L6.856.662l-.223-.11.223.11a.16.16 0 01.288 0h0l1.94 3.932.059.118.13.019 4.34.63h0a.16.16 0 01.13.11z" stroke="#fff" stroke-opacity=".5" stroke-width=".5"/></g><defs><clipPath id="clip0"><path fill="#fff" d="M0 0h14v14H0z"/></clipPath></defs></svg>