<svg width="23" height="23" fill="none" xmlns="http://www.w3.org/2000/svg"><g opacity=".5" clip-path="url(#clip0)" fill="#000"><path d="M20.501 1.999h-6a.5.5 0 000 1h6a.5.5 0 000-1z"/><path d="M20.854 2.146l-2-2a.5.5 0 00-.707.707L19.793 2.5l-1.647 1.647a.5.5 0 10.708.707l2-2a.5.5 0 000-.707zM7.5 1.999h-6a.5.5 0 000 1h6a.5.5 0 000-1z"/><path d="M2.207 2.5L3.853.852a.5.5 0 00-.707-.707l-2 2a.5.5 0 000 .707l2 2a.502.502 0 00.707 0 .5.5 0 000-.708L2.207 2.5zM20 10c-.41 0-.794.124-1.112.338A2.005 2.005 0 0017 8.998c-.41 0-.794.125-1.112.338A2.005 2.005 0 0014 8c-.364 0-.706.098-1 .27V5c0-1.103-.897-2-2-2s-2 .897-2 2v8.5l-1.738-1.302a2.622 2.622 0 00-3.41.242 1.501 1.501 0 000 2.12l7.122 7.123A4.473 4.473 0 0014.157 23H16.5c3.032 0 5.5-2.467 5.5-5.5V12c0-1.104-.897-2-2-2zm1 7.5c0 2.48-2.019 4.5-4.5 4.5h-2.343a3.478 3.478 0 01-2.476-1.025L4.56 13.853a.5.5 0 010-.707 1.613 1.613 0 012.103-.15L9.2 14.9a.502.502 0 00.8-.4V5a1.001 1.001 0 012 0v7.5a.5.5 0 001 0V10a1.001 1.001 0 012 0v2.5a.5.5 0 001 0V11a1.001 1.001 0 012 0v1.5a.5.5 0 001 0V12a1.001 1.001 0 012 0v5.5z"/></g><defs><clipPath id="clip0"><path fill="#fff" d="M0 0h23v23H0z"/></clipPath></defs></svg>