<svg width="13" height="13" fill="none" xmlns="http://www.w3.org/2000/svg"><g clip-path="url(#clip0)"><path d="M7.67.816H5.254a4.233 4.233 0 00-4.229 4.228v1.812a4.23 4.23 0 002.416 3.821v2.018c0 .175.22.267.344.142l1.753-1.753H7.67a4.233 4.233 0 004.228-4.228V5.044A4.233 4.233 0 007.67.816z" fill="#665CAC"/><path d="M4.045 10.677A4.23 4.23 0 011.63 6.856V5.044A4.233 4.233 0 015.858.816h-.604a4.233 4.233 0 00-4.229 4.228v1.812a4.23 4.23 0 002.416 3.821v2.018c0 .175.22.267.344.142l.26-.26v-1.9z" fill="#523494"/><path d="M9.5 8.32l-.18-.98a.201.201 0 00-.159-.161l-1.424-.285a.202.202 0 00-.182.055l-.578.579c-.974-.437-1.515-.98-1.991-1.995l.576-.577a.202.202 0 00.055-.182L5.333 3.35a.201.201 0 00-.161-.158l-.98-.181a.202.202 0 00-.082.002 1.397 1.397 0 00-.683.377c-.326.326-.45.8-.36 1.374.151.963.623 2.302 1.493 3.176l.012.012c.873.87 2.213 1.341 3.176 1.493.12.019.238.028.35.028.417 0 .767-.132 1.024-.388a1.41 1.41 0 00.377-.683.203.203 0 00.002-.082z" fill="#fff"/><path d="M5.365 5.153l.197-.197-.197.197zm2.191 1.795l-.2.2.2-.2zm.921 2.145a2.25 2.25 0 01-.35-.028c-.963-.152-2.303-.623-3.176-1.493L4.94 7.56c-.87-.873-1.342-2.213-1.494-3.176-.073-.463-.005-.862.195-1.17a1.41 1.41 0 00-.215.176c-.325.325-.45.8-.36 1.374.152.963.624 2.302 1.494 3.176l.012.012c.873.87 2.213 1.341 3.175 1.492.122.02.238.029.35.029.418 0 .768-.132 1.024-.388a1.41 1.41 0 00.176-.215 1.48 1.48 0 01-.82.223z" fill="#E5E5E5"/><path d="M6.863 4.239a.201.201 0 000 .402c.445 0 .806.362.806.806 0 .11.091.201.201.201.11 0 .201-.092.201-.201a1.21 1.21 0 00-1.208-1.208z" fill="#fff"/><path d="M6.863 3.433c-.074 0-.15.004-.223.012a.201.201 0 10.044.4 1.613 1.613 0 011.78 1.78.203.203 0 00.178.223.203.203 0 00.223-.178 2.016 2.016 0 00-2.001-2.237z" fill="#fff"/><path d="M6.864 2.628a2.87 2.87 0 00-.217.008.201.201 0 00.03.402 2.419 2.419 0 012.538 2.967.203.203 0 00.143.24.203.203 0 00.25-.148 2.822 2.822 0 00-2.743-3.47z" fill="#fff"/></g><defs><clipPath id="clip0"><path fill="#fff" transform="translate(.421 .816)" d="M0 0h12.079v12.079H0z"/></clipPath></defs></svg>