<svg width="25" height="25" fill="none" xmlns="http://www.w3.org/2000/svg"><g clip-path="url(#clip0)" fill="#fff"><path d="M23.864 12.605V9.09c0-1.191-.924-2.16-2.091-2.254l-3.264-5.7a2.245 2.245 0 00-3.085-.83L4.238 6.817H2.274A2.275 2.275 0 000 9.091v13.636A2.275 2.275 0 002.274 25h19.318a2.275 2.275 0 002.272-2.273v-3.513a1.702 1.702 0 001.137-1.6v-3.41c0-.74-.477-1.364-1.137-1.6zm-3.412-5.787H15.5l3.714-2.162 1.238 2.162zM18.649 3.67l-5.408 3.148h-2.243l7.09-4.128.561.98zm-2.653-2.382a1.114 1.114 0 011.526.414l.002.002L8.74 6.818H6.497l9.5-5.53zm6.732 21.44c0 .626-.51 1.136-1.136 1.136H2.274c-.627 0-1.137-.51-1.137-1.137V9.091c0-.626.51-1.136 1.137-1.136h19.318c.626 0 1.136.51 1.136 1.136v3.41h-3.41c-1.879 0-3.408 1.528-3.408 3.408s1.529 3.41 3.409 3.41h3.409v3.408zm1.136-5.114a.569.569 0 01-.568.568H19.32a2.275 2.275 0 01-2.273-2.273 2.275 2.275 0 012.273-2.273h3.977c.314 0 .568.255.568.569v3.409z"/><path d="M19.318 14.773a1.137 1.137 0 101.136 1.136c0-.626-.51-1.136-1.136-1.136z"/></g><defs><clipPath id="clip0"><path fill="#fff" d="M0 0h25v25H0z"/></clipPath></defs></svg>