<svg width="12" height="13" fill="none" xmlns="http://www.w3.org/2000/svg"><g clip-path="url(#clip0)"><path d="M5.944.82a5.68 5.68 0 00-4.781 8.747L.279 11.86a.237.237 0 00.3.308l2.368-.845A5.68 5.68 0 105.944.82z" fill="#4CAF50"/><path d="M8.653 7.47s-.58-.283-.943-.473c-.411-.211-.894.185-1.121.41a2.848 2.848 0 01-.95-.603 2.846 2.846 0 01-.604-.95c.226-.228.62-.71.41-1.121a79.184 79.184 0 01-.473-.944.237.237 0 00-.211-.13h-.474c-.69.12-1.19.72-1.183 1.42 0 .744.89 2.172 1.49 2.772.599.6 2.027 1.49 2.77 1.49.7.006 1.302-.495 1.42-1.184v-.474a.237.237 0 00-.131-.212z" fill="#FAFAFA"/></g><defs><clipPath id="clip0"><path fill="#fff" transform="translate(.263 .816)" d="M0 0h11.368v11.368H0z"/></clipPath></defs></svg>