<svg width="78" height="88" fill="none" xmlns="http://www.w3.org/2000/svg"><path opacity=".2" d="M39.24 19.64c0-5.4-1.92-9.96-5.64-13.68C29.88 2.24 25.32.44 19.68.44 14.04.44 9.36 2.36 5.64 6.08 1.92 9.8 0 14.24 0 19.64s1.92 9.96 5.64 13.68c3.72 3.72 8.4 5.52 14.04 5.52 5.64 0 10.2-1.8 13.92-5.52 3.72-3.72 5.64-8.28 5.64-13.68zm-19.68 8.64c-4.92 0-8.52-3.84-8.52-8.64 0-4.92 3.6-8.76 8.52-8.76 5.16 0 8.64 3.84 8.64 8.76 0 4.8-3.48 8.64-8.64 8.64zm-6 49.2L68.88 15.8l-6.48-3.72L7.08 73.64l6.48 3.84zm44.52 9.96c5.52 0 10.2-1.8 13.92-5.52 3.72-3.72 5.64-8.28 5.64-13.68S75.72 58.4 72 54.68c-3.72-3.72-8.4-5.64-13.92-5.64-5.64 0-10.32 1.92-14.04 5.64-3.72 3.72-5.64 8.16-5.64 13.56s1.92 9.96 5.64 13.68c3.72 3.72 8.4 5.52 14.04 5.52zm-.12-10.56c-4.92 0-8.52-3.84-8.52-8.64 0-4.92 3.6-8.76 8.52-8.76 5.16 0 8.64 3.84 8.64 8.76 0 4.8-3.48 8.64-8.64 8.64z" fill="#fff"/></svg>